<?xml version="1.0" standalone="no"?>
<!DOCTYPE svg PUBLIC "-//W3C//DTD SVG 20010904//EN"
 "http://www.w3.org/TR/2001/REC-SVG-20010904/DTD/svg10.dtd">
<svg version="1.0" xmlns="http://www.w3.org/2000/svg"
 width="512.000000pt" height="512.000000pt" viewBox="0 0 512.000000 512.000000"
 preserveAspectRatio="xMidYMid meet">
<metadata>
Created by potrace 1.14, written by Peter Selinger 2001-2017
</metadata>
<g transform="translate(0.000000,512.000000) scale(0.100000,-0.100000)"
fill="#000000" stroke="none">
<path d="M1979 5116 c-2 -2 -36 -6 -76 -9 -156 -13 -393 -72 -568 -143 -248
-100 -522 -281 -709 -470 -310 -312 -525 -729 -595 -1154 -6 -36 -14 -78 -17
-95 -9 -46 -12 -431 -4 -478 4 -23 11 -65 14 -94 3 -28 8 -57 10 -65 3 -7 7
-30 10 -50 19 -130 128 -435 203 -568 113 -199 222 -346 359 -485 162 -164
250 -235 425 -341 92 -55 265 -144 304 -157 11 -3 67 -22 124 -42 104 -36 190
-59 286 -75 28 -5 59 -11 70 -13 116 -26 454 -27 610 -2 380 59 696 189 984
407 35 26 67 48 71 48 4 0 297 -290 651 -643 354 -354 658 -651 676 -660 45
-24 121 -31 165 -15 85 30 135 95 145 190 10 95 17 86 -682 785 -355 355 -645
649 -645 653 0 5 18 31 40 59 93 117 202 305 268 461 62 146 123 357 138 475
3 22 7 51 10 65 23 141 23 422 0 575 -21 141 -19 134 -56 271 -94 352 -286
680 -555 949 -309 309 -691 510 -1125 590 -41 8 -91 17 -110 20 -38 7 -415 16
-421 11z m276 -430 c445 -28 873 -243 1173 -591 59 -68 56 -65 127 -171 142
-212 233 -455 269 -716 13 -97 14 -369 2 -443 -36 -216 -85 -374 -167 -536
-35 -72 -73 -132 -170 -276 -60 -88 -216 -241 -344 -337 -121 -91 -263 -169
-402 -222 -67 -25 -219 -70 -268 -78 -16 -3 -61 -11 -100 -18 -104 -18 -399
-15 -515 5 -619 111 -1111 516 -1326 1092 -28 76 -69 226 -79 290 -3 22 -8 53
-11 69 -27 153 -16 420 22 586 9 36 18 76 20 90 20 100 106 299 193 445 84
141 272 356 386 440 22 17 42 32 45 36 3 3 43 30 90 61 184 121 382 202 600
247 76 15 121 21 230 27 58 4 107 8 108 10 2 1 9 1 15 -1 7 -2 53 -6 102 -9z"/>
<path d="M2653 4049 c-46 -9 -73 -32 -84 -69 -7 -23 -9 -371 -7 -1019 l3 -983
34 -29 35 -29 253 3 253 2 27 28 28 27 3 991 c3 1095 6 1043 -60 1070 -32 13
-429 20 -485 8z"/>
<path d="M1805 3412 c-41 -4 -74 -31 -88 -73 -9 -26 -12 -203 -11 -687 0 -639
1 -653 21 -680 37 -50 51 -52 302 -51 145 0 242 4 257 11 13 6 32 23 41 37 17
24 18 73 19 682 1 454 -2 666 -10 689 -6 18 -23 42 -38 53 -25 19 -43 20 -245
21 -120 1 -231 0 -248 -2z"/>
<path d="M927 2765 c-17 -5 -40 -23 -51 -38 -20 -28 -21 -40 -22 -372 -1 -291
1 -349 14 -376 26 -54 55 -59 308 -59 252 0 282 6 305 62 18 45 18 698 -1 733
-30 55 -45 58 -294 59 -128 1 -242 -3 -259 -9z"/>
</g>
</svg>
